<mxfile host="app.diagrams.net" modified="2023-06-09T09:22:02.712Z" agent="Mozilla/5.0 (Windows NT 10.0; Win64; x64) AppleWebKit/537.36 (KHTML, like Gecko) Chrome/114.0.0.0 Safari/537.36" etag="A6j1cyE9u5N21LtWtGbj" version="21.3.7" type="device">
  <diagram id="C5RBs43oDa-KdzZeNtuy" name="Page-1">
    <mxGraphModel dx="2816" dy="1536" grid="1" gridSize="10" guides="1" tooltips="1" connect="1" arrows="1" fold="1" page="1" pageScale="1" pageWidth="827" pageHeight="1169" math="0" shadow="0">
      <root>
        <mxCell id="WIyWlLk6GJQsqaUBKTNV-0" />
        <mxCell id="WIyWlLk6GJQsqaUBKTNV-1" parent="WIyWlLk6GJQsqaUBKTNV-0" />
        <mxCell id="A5K-2-Q59cUxb9KNtKoW-68" value="" style="rounded=0;whiteSpace=wrap;html=1;strokeColor=#d79b00;fontFamily=Helvetica;fontSize=12;fillColor=#ffe6cc;" vertex="1" parent="WIyWlLk6GJQsqaUBKTNV-1">
          <mxGeometry x="840" y="80" width="880" height="720" as="geometry" />
        </mxCell>
        <mxCell id="WIyWlLk6GJQsqaUBKTNV-2" value="" style="rounded=0;html=1;jettySize=auto;orthogonalLoop=1;fontSize=11;endArrow=block;endFill=0;endSize=8;strokeWidth=1;shadow=0;labelBackgroundColor=none;edgeStyle=orthogonalEdgeStyle;" parent="WIyWlLk6GJQsqaUBKTNV-1" source="WIyWlLk6GJQsqaUBKTNV-3" target="WIyWlLk6GJQsqaUBKTNV-6" edge="1">
          <mxGeometry relative="1" as="geometry" />
        </mxCell>
        <mxCell id="WIyWlLk6GJQsqaUBKTNV-3" value="Lamp doesn&#39;t work" style="rounded=1;whiteSpace=wrap;html=1;fontSize=12;glass=0;strokeWidth=1;shadow=0;" parent="WIyWlLk6GJQsqaUBKTNV-1" vertex="1">
          <mxGeometry x="160" y="80" width="120" height="40" as="geometry" />
        </mxCell>
        <mxCell id="WIyWlLk6GJQsqaUBKTNV-4" value="Yes" style="rounded=0;html=1;jettySize=auto;orthogonalLoop=1;fontSize=11;endArrow=block;endFill=0;endSize=8;strokeWidth=1;shadow=0;labelBackgroundColor=none;edgeStyle=orthogonalEdgeStyle;" parent="WIyWlLk6GJQsqaUBKTNV-1" source="WIyWlLk6GJQsqaUBKTNV-6" target="WIyWlLk6GJQsqaUBKTNV-10" edge="1">
          <mxGeometry y="20" relative="1" as="geometry">
            <mxPoint as="offset" />
          </mxGeometry>
        </mxCell>
        <mxCell id="WIyWlLk6GJQsqaUBKTNV-5" value="No" style="edgeStyle=orthogonalEdgeStyle;rounded=0;html=1;jettySize=auto;orthogonalLoop=1;fontSize=11;endArrow=block;endFill=0;endSize=8;strokeWidth=1;shadow=0;labelBackgroundColor=none;" parent="WIyWlLk6GJQsqaUBKTNV-1" source="WIyWlLk6GJQsqaUBKTNV-6" target="WIyWlLk6GJQsqaUBKTNV-7" edge="1">
          <mxGeometry y="10" relative="1" as="geometry">
            <mxPoint as="offset" />
          </mxGeometry>
        </mxCell>
        <mxCell id="WIyWlLk6GJQsqaUBKTNV-6" value="Lamp&lt;br&gt;plugged in?" style="rhombus;whiteSpace=wrap;html=1;shadow=0;fontFamily=Helvetica;fontSize=12;align=center;strokeWidth=1;spacing=6;spacingTop=-4;" parent="WIyWlLk6GJQsqaUBKTNV-1" vertex="1">
          <mxGeometry x="170" y="170" width="100" height="80" as="geometry" />
        </mxCell>
        <mxCell id="WIyWlLk6GJQsqaUBKTNV-7" value="Plug in lamp" style="rounded=1;whiteSpace=wrap;html=1;fontSize=12;glass=0;strokeWidth=1;shadow=0;" parent="WIyWlLk6GJQsqaUBKTNV-1" vertex="1">
          <mxGeometry x="320" y="190" width="120" height="40" as="geometry" />
        </mxCell>
        <mxCell id="WIyWlLk6GJQsqaUBKTNV-8" value="No" style="rounded=0;html=1;jettySize=auto;orthogonalLoop=1;fontSize=11;endArrow=block;endFill=0;endSize=8;strokeWidth=1;shadow=0;labelBackgroundColor=none;edgeStyle=orthogonalEdgeStyle;" parent="WIyWlLk6GJQsqaUBKTNV-1" source="WIyWlLk6GJQsqaUBKTNV-10" target="WIyWlLk6GJQsqaUBKTNV-11" edge="1">
          <mxGeometry x="0.3333" y="20" relative="1" as="geometry">
            <mxPoint as="offset" />
          </mxGeometry>
        </mxCell>
        <mxCell id="WIyWlLk6GJQsqaUBKTNV-9" value="Yes" style="edgeStyle=orthogonalEdgeStyle;rounded=0;html=1;jettySize=auto;orthogonalLoop=1;fontSize=11;endArrow=block;endFill=0;endSize=8;strokeWidth=1;shadow=0;labelBackgroundColor=none;" parent="WIyWlLk6GJQsqaUBKTNV-1" source="WIyWlLk6GJQsqaUBKTNV-10" target="WIyWlLk6GJQsqaUBKTNV-12" edge="1">
          <mxGeometry y="10" relative="1" as="geometry">
            <mxPoint as="offset" />
            <Array as="points">
              <mxPoint x="280" y="330" />
              <mxPoint x="280" y="330" />
            </Array>
          </mxGeometry>
        </mxCell>
        <mxCell id="WIyWlLk6GJQsqaUBKTNV-10" value="Bulb&lt;br&gt;burned out?" style="rhombus;whiteSpace=wrap;html=1;shadow=0;fontFamily=Helvetica;fontSize=12;align=center;strokeWidth=1;spacing=6;spacingTop=-4;" parent="WIyWlLk6GJQsqaUBKTNV-1" vertex="1">
          <mxGeometry x="170" y="290" width="100" height="80" as="geometry" />
        </mxCell>
        <mxCell id="WIyWlLk6GJQsqaUBKTNV-11" value="Repair Lamp" style="rounded=1;whiteSpace=wrap;html=1;fontSize=12;glass=0;strokeWidth=1;shadow=0;" parent="WIyWlLk6GJQsqaUBKTNV-1" vertex="1">
          <mxGeometry x="160" y="430" width="120" height="40" as="geometry" />
        </mxCell>
        <mxCell id="WIyWlLk6GJQsqaUBKTNV-12" value="Replace Bulb" style="rounded=1;whiteSpace=wrap;html=1;fontSize=12;glass=0;strokeWidth=1;shadow=0;" parent="WIyWlLk6GJQsqaUBKTNV-1" vertex="1">
          <mxGeometry x="320" y="310" width="120" height="40" as="geometry" />
        </mxCell>
        <mxCell id="A5K-2-Q59cUxb9KNtKoW-3" value="검색어로 정렬된 List로 이동" style="rounded=1;whiteSpace=wrap;html=1;arcSize=50;fillColor=#f8cecc;strokeColor=#b85450;" vertex="1" parent="WIyWlLk6GJQsqaUBKTNV-1">
          <mxGeometry x="880" y="560" width="120" height="40" as="geometry" />
        </mxCell>
        <mxCell id="A5K-2-Q59cUxb9KNtKoW-7" value="" style="endArrow=classic;html=1;rounded=0;exitX=0.5;exitY=1;exitDx=0;exitDy=0;entryX=0.5;entryY=0;entryDx=0;entryDy=0;" edge="1" parent="WIyWlLk6GJQsqaUBKTNV-1" source="A5K-2-Q59cUxb9KNtKoW-13" target="A5K-2-Q59cUxb9KNtKoW-14">
          <mxGeometry width="50" height="50" relative="1" as="geometry">
            <mxPoint x="939.04" y="234.68000000000006" as="sourcePoint" />
            <mxPoint x="940" y="280" as="targetPoint" />
          </mxGeometry>
        </mxCell>
        <mxCell id="A5K-2-Q59cUxb9KNtKoW-13" value="자유게시판 List Page&lt;br&gt;[검색]" style="rounded=1;whiteSpace=wrap;html=1;strokeColor=#b85450;fontFamily=Helvetica;fontSize=12;fillColor=#f8cecc;arcSize=50;" vertex="1" parent="WIyWlLk6GJQsqaUBKTNV-1">
          <mxGeometry x="880" y="200" width="120" height="40" as="geometry" />
        </mxCell>
        <mxCell id="A5K-2-Q59cUxb9KNtKoW-14" value="게시판 내의 검색&lt;br&gt;검색범위 지정(셀렉트박스),입력" style="shape=parallelogram;perimeter=parallelogramPerimeter;whiteSpace=wrap;html=1;fixedSize=1;strokeColor=default;fontFamily=Helvetica;fontSize=12;fontColor=default;fillColor=default;" vertex="1" parent="WIyWlLk6GJQsqaUBKTNV-1">
          <mxGeometry x="880" y="280" width="120" height="40" as="geometry" />
        </mxCell>
        <mxCell id="A5K-2-Q59cUxb9KNtKoW-15" value="축제톡톡(자유게시판) List 목록 페이지&lt;br&gt;[검색, 글쓰기,목록]" style="whiteSpace=wrap;html=1;shape=mxgraph.basic.document;strokeColor=default;fontFamily=Helvetica;fontSize=12;fontColor=default;fillColor=default;" vertex="1" parent="WIyWlLk6GJQsqaUBKTNV-1">
          <mxGeometry x="880" y="100" width="130" height="60" as="geometry" />
        </mxCell>
        <mxCell id="A5K-2-Q59cUxb9KNtKoW-20" value="" style="endArrow=classic;html=1;rounded=0;fontFamily=Helvetica;fontSize=12;fontColor=default;exitX=0.5;exitY=1;exitDx=0;exitDy=0;entryX=0.5;entryY=0;entryDx=0;entryDy=0;" edge="1" parent="WIyWlLk6GJQsqaUBKTNV-1" source="A5K-2-Q59cUxb9KNtKoW-14" target="A5K-2-Q59cUxb9KNtKoW-76">
          <mxGeometry width="50" height="50" relative="1" as="geometry">
            <mxPoint x="920" y="330" as="sourcePoint" />
            <mxPoint x="970" y="280" as="targetPoint" />
          </mxGeometry>
        </mxCell>
        <mxCell id="A5K-2-Q59cUxb9KNtKoW-32" value="글쓰기 버튼 클릭" style="rounded=0;whiteSpace=wrap;html=1;strokeColor=default;fontFamily=Helvetica;fontSize=12;fontColor=default;fillColor=default;" vertex="1" parent="WIyWlLk6GJQsqaUBKTNV-1">
          <mxGeometry x="1080" y="280" width="120" height="40" as="geometry" />
        </mxCell>
        <mxCell id="A5K-2-Q59cUxb9KNtKoW-33" value="로그인이 되어있는가?&lt;br&gt;Y/N" style="rhombus;whiteSpace=wrap;html=1;shadow=0;fontFamily=Helvetica;fontSize=12;align=center;strokeWidth=1;spacing=6;spacingTop=-4;" vertex="1" parent="WIyWlLk6GJQsqaUBKTNV-1">
          <mxGeometry x="1090" y="360" width="100" height="80" as="geometry" />
        </mxCell>
        <mxCell id="A5K-2-Q59cUxb9KNtKoW-36" value="" style="endArrow=classic;html=1;rounded=0;fontFamily=Helvetica;fontSize=12;fontColor=default;exitX=0.5;exitY=1;exitDx=0;exitDy=0;entryX=0.5;entryY=0;entryDx=0;entryDy=0;shadow=0;" edge="1" parent="WIyWlLk6GJQsqaUBKTNV-1" source="A5K-2-Q59cUxb9KNtKoW-32" target="A5K-2-Q59cUxb9KNtKoW-33">
          <mxGeometry width="50" height="50" relative="1" as="geometry">
            <mxPoint x="1140" y="250" as="sourcePoint" />
            <mxPoint x="1140" y="290" as="targetPoint" />
          </mxGeometry>
        </mxCell>
        <mxCell id="A5K-2-Q59cUxb9KNtKoW-39" value="" style="endArrow=classic;html=1;rounded=0;fontFamily=Helvetica;fontSize=12;fontColor=default;entryX=0.5;entryY=0;entryDx=0;entryDy=0;exitX=0.5;exitY=1;exitDx=0;exitDy=0;" edge="1" parent="WIyWlLk6GJQsqaUBKTNV-1" source="A5K-2-Q59cUxb9KNtKoW-85" target="A5K-2-Q59cUxb9KNtKoW-32">
          <mxGeometry width="50" height="50" relative="1" as="geometry">
            <mxPoint x="980" y="240" as="sourcePoint" />
            <mxPoint x="1290" y="260" as="targetPoint" />
          </mxGeometry>
        </mxCell>
        <mxCell id="A5K-2-Q59cUxb9KNtKoW-40" value="게시판 List 목록 클릭" style="rounded=0;whiteSpace=wrap;html=1;strokeColor=default;fontFamily=Helvetica;fontSize=12;fontColor=default;fillColor=default;" vertex="1" parent="WIyWlLk6GJQsqaUBKTNV-1">
          <mxGeometry x="1400" y="400" width="120" height="40" as="geometry" />
        </mxCell>
        <mxCell id="A5K-2-Q59cUxb9KNtKoW-42" value="" style="endArrow=classic;html=1;rounded=0;fontFamily=Helvetica;fontSize=12;fontColor=default;exitX=0.5;exitY=1;exitDx=0;exitDy=0;entryX=0.5;entryY=0;entryDx=0;entryDy=0;endFill=0;" edge="1" parent="WIyWlLk6GJQsqaUBKTNV-1" source="A5K-2-Q59cUxb9KNtKoW-33" target="A5K-2-Q59cUxb9KNtKoW-46">
          <mxGeometry width="50" height="50" relative="1" as="geometry">
            <mxPoint x="1170" y="330" as="sourcePoint" />
            <mxPoint x="1140" y="480" as="targetPoint" />
          </mxGeometry>
        </mxCell>
        <mxCell id="A5K-2-Q59cUxb9KNtKoW-44" value="Yes" style="edgeLabel;html=1;align=center;verticalAlign=middle;resizable=0;points=[];fontSize=12;fontFamily=Helvetica;fontColor=default;" vertex="1" connectable="0" parent="A5K-2-Q59cUxb9KNtKoW-42">
          <mxGeometry x="-0.3851" y="-2" relative="1" as="geometry">
            <mxPoint x="22" as="offset" />
          </mxGeometry>
        </mxCell>
        <mxCell id="A5K-2-Q59cUxb9KNtKoW-43" value="" style="endArrow=classic;html=1;rounded=0;fontFamily=Helvetica;fontSize=12;fontColor=default;exitX=1;exitY=0.5;exitDx=0;exitDy=0;entryX=0;entryY=0.5;entryDx=0;entryDy=0;endFill=0;" edge="1" parent="WIyWlLk6GJQsqaUBKTNV-1" source="A5K-2-Q59cUxb9KNtKoW-33" target="A5K-2-Q59cUxb9KNtKoW-48">
          <mxGeometry width="50" height="50" relative="1" as="geometry">
            <mxPoint x="1170" y="330" as="sourcePoint" />
            <mxPoint x="1240" y="400" as="targetPoint" />
          </mxGeometry>
        </mxCell>
        <mxCell id="A5K-2-Q59cUxb9KNtKoW-45" value="No" style="edgeLabel;html=1;align=center;verticalAlign=middle;resizable=0;points=[];fontSize=12;fontFamily=Helvetica;fontColor=default;" vertex="1" connectable="0" parent="A5K-2-Q59cUxb9KNtKoW-43">
          <mxGeometry x="-0.464" y="1" relative="1" as="geometry">
            <mxPoint y="11" as="offset" />
          </mxGeometry>
        </mxCell>
        <mxCell id="A5K-2-Q59cUxb9KNtKoW-46" value="글쓰기 Page&lt;br&gt;이동" style="rounded=1;whiteSpace=wrap;html=1;arcSize=50;fillColor=#f8cecc;strokeColor=#b85450;" vertex="1" parent="WIyWlLk6GJQsqaUBKTNV-1">
          <mxGeometry x="1080" y="480" width="120" height="40" as="geometry" />
        </mxCell>
        <mxCell id="A5K-2-Q59cUxb9KNtKoW-48" value="[confirm]&lt;br&gt;로그인후 사용가능합니다. 로그인 하시겠습니까?&lt;br&gt;Y/N" style="rhombus;whiteSpace=wrap;html=1;shadow=0;fontFamily=Helvetica;fontSize=12;align=center;strokeWidth=1;spacing=6;spacingTop=-4;" vertex="1" parent="WIyWlLk6GJQsqaUBKTNV-1">
          <mxGeometry x="1250" y="360" width="100" height="80" as="geometry" />
        </mxCell>
        <mxCell id="A5K-2-Q59cUxb9KNtKoW-49" value="" style="endArrow=classic;html=1;rounded=0;fontFamily=Helvetica;fontSize=12;fontColor=default;exitX=0.5;exitY=1;exitDx=0;exitDy=0;entryX=0.5;entryY=0;entryDx=0;entryDy=0;endFill=0;" edge="1" parent="WIyWlLk6GJQsqaUBKTNV-1" source="A5K-2-Q59cUxb9KNtKoW-48" target="A5K-2-Q59cUxb9KNtKoW-51">
          <mxGeometry width="50" height="50" relative="1" as="geometry">
            <mxPoint x="1150" y="450" as="sourcePoint" />
            <mxPoint x="1150" y="490" as="targetPoint" />
          </mxGeometry>
        </mxCell>
        <mxCell id="A5K-2-Q59cUxb9KNtKoW-50" value="Yes" style="edgeLabel;html=1;align=center;verticalAlign=middle;resizable=0;points=[];fontSize=12;fontFamily=Helvetica;fontColor=default;" vertex="1" connectable="0" parent="A5K-2-Q59cUxb9KNtKoW-49">
          <mxGeometry x="-0.3851" y="-2" relative="1" as="geometry">
            <mxPoint x="22" as="offset" />
          </mxGeometry>
        </mxCell>
        <mxCell id="A5K-2-Q59cUxb9KNtKoW-51" value="Login Page&lt;br&gt;이동" style="rounded=1;whiteSpace=wrap;html=1;arcSize=50;fillColor=#f8cecc;strokeColor=#b85450;" vertex="1" parent="WIyWlLk6GJQsqaUBKTNV-1">
          <mxGeometry x="1240" y="480" width="120" height="40" as="geometry" />
        </mxCell>
        <mxCell id="A5K-2-Q59cUxb9KNtKoW-52" value="" style="endArrow=classic;html=1;rounded=0;fontFamily=Helvetica;fontSize=12;fontColor=default;exitX=0.5;exitY=0;exitDx=0;exitDy=0;entryX=1;entryY=0.5;entryDx=0;entryDy=0;endFill=0;" edge="1" parent="WIyWlLk6GJQsqaUBKTNV-1" source="A5K-2-Q59cUxb9KNtKoW-48" target="A5K-2-Q59cUxb9KNtKoW-85">
          <mxGeometry width="50" height="50" relative="1" as="geometry">
            <mxPoint x="1200" y="410" as="sourcePoint" />
            <mxPoint x="1260" y="410" as="targetPoint" />
            <Array as="points">
              <mxPoint x="1300" y="220" />
            </Array>
          </mxGeometry>
        </mxCell>
        <mxCell id="A5K-2-Q59cUxb9KNtKoW-53" value="No" style="edgeLabel;html=1;align=center;verticalAlign=middle;resizable=0;points=[];fontSize=12;fontFamily=Helvetica;fontColor=default;" vertex="1" connectable="0" parent="A5K-2-Q59cUxb9KNtKoW-52">
          <mxGeometry x="-0.464" y="1" relative="1" as="geometry">
            <mxPoint x="21" y="87" as="offset" />
          </mxGeometry>
        </mxCell>
        <mxCell id="A5K-2-Q59cUxb9KNtKoW-54" value="게시판 상세 Page&lt;br&gt;이동" style="rounded=1;whiteSpace=wrap;html=1;arcSize=50;fillColor=#f8cecc;strokeColor=#b85450;" vertex="1" parent="WIyWlLk6GJQsqaUBKTNV-1">
          <mxGeometry x="1400" y="480" width="120" height="40" as="geometry" />
        </mxCell>
        <mxCell id="A5K-2-Q59cUxb9KNtKoW-55" value="" style="endArrow=classic;html=1;rounded=0;fontFamily=Helvetica;fontSize=12;fontColor=default;exitX=0.5;exitY=1;exitDx=0;exitDy=0;entryX=0.5;entryY=0;entryDx=0;entryDy=0;" edge="1" parent="WIyWlLk6GJQsqaUBKTNV-1" source="A5K-2-Q59cUxb9KNtKoW-40" target="A5K-2-Q59cUxb9KNtKoW-54">
          <mxGeometry width="50" height="50" relative="1" as="geometry">
            <mxPoint x="1150" y="450" as="sourcePoint" />
            <mxPoint x="1150" y="490" as="targetPoint" />
          </mxGeometry>
        </mxCell>
        <mxCell id="A5K-2-Q59cUxb9KNtKoW-59" value="게시판 List 목록 클릭" style="rounded=0;whiteSpace=wrap;html=1;strokeColor=default;fontFamily=Helvetica;fontSize=12;fontColor=default;fillColor=default;" vertex="1" parent="WIyWlLk6GJQsqaUBKTNV-1">
          <mxGeometry x="880" y="640" width="120" height="40" as="geometry" />
        </mxCell>
        <mxCell id="A5K-2-Q59cUxb9KNtKoW-60" value="게시판 상세 Page&lt;br&gt;이동" style="rounded=1;whiteSpace=wrap;html=1;arcSize=50;fillColor=#f8cecc;strokeColor=#b85450;" vertex="1" parent="WIyWlLk6GJQsqaUBKTNV-1">
          <mxGeometry x="880" y="720" width="120" height="40" as="geometry" />
        </mxCell>
        <mxCell id="A5K-2-Q59cUxb9KNtKoW-61" value="" style="endArrow=classic;html=1;rounded=0;fontFamily=Helvetica;fontSize=12;fontColor=default;exitX=0.5;exitY=1;exitDx=0;exitDy=0;entryX=0.5;entryY=0;entryDx=0;entryDy=0;" edge="1" parent="WIyWlLk6GJQsqaUBKTNV-1" source="A5K-2-Q59cUxb9KNtKoW-59" target="A5K-2-Q59cUxb9KNtKoW-60">
          <mxGeometry width="50" height="50" relative="1" as="geometry">
            <mxPoint x="630" y="690" as="sourcePoint" />
            <mxPoint x="630" y="730" as="targetPoint" />
          </mxGeometry>
        </mxCell>
        <mxCell id="A5K-2-Q59cUxb9KNtKoW-62" value="" style="endArrow=classic;html=1;rounded=0;fontFamily=Helvetica;fontSize=12;fontColor=default;exitX=0.5;exitY=1;exitDx=0;exitDy=0;entryX=0.5;entryY=0;entryDx=0;entryDy=0;" edge="1" parent="WIyWlLk6GJQsqaUBKTNV-1" source="A5K-2-Q59cUxb9KNtKoW-3" target="A5K-2-Q59cUxb9KNtKoW-59">
          <mxGeometry width="50" height="50" relative="1" as="geometry">
            <mxPoint x="950" y="530" as="sourcePoint" />
            <mxPoint x="950" y="570" as="targetPoint" />
          </mxGeometry>
        </mxCell>
        <mxCell id="A5K-2-Q59cUxb9KNtKoW-69" value="유효성검사 통과?&lt;br&gt;Y/N" style="rhombus;whiteSpace=wrap;html=1;shadow=0;fontFamily=Helvetica;fontSize=12;align=center;strokeWidth=1;spacing=6;spacingTop=-4;" vertex="1" parent="WIyWlLk6GJQsqaUBKTNV-1">
          <mxGeometry x="890" y="440" width="100" height="80" as="geometry" />
        </mxCell>
        <mxCell id="A5K-2-Q59cUxb9KNtKoW-71" value="" style="endArrow=classic;html=1;rounded=0;fontFamily=Helvetica;fontSize=12;fontColor=default;exitX=0.5;exitY=1;exitDx=0;exitDy=0;entryX=0.5;entryY=0;entryDx=0;entryDy=0;endFill=0;" edge="1" parent="WIyWlLk6GJQsqaUBKTNV-1" source="A5K-2-Q59cUxb9KNtKoW-69" target="A5K-2-Q59cUxb9KNtKoW-3">
          <mxGeometry width="50" height="50" relative="1" as="geometry">
            <mxPoint x="1110" y="530" as="sourcePoint" />
            <mxPoint x="1110" y="570" as="targetPoint" />
          </mxGeometry>
        </mxCell>
        <mxCell id="A5K-2-Q59cUxb9KNtKoW-72" value="Yes" style="edgeLabel;html=1;align=center;verticalAlign=middle;resizable=0;points=[];fontSize=12;fontFamily=Helvetica;fontColor=default;" vertex="1" connectable="0" parent="A5K-2-Q59cUxb9KNtKoW-71">
          <mxGeometry x="-0.3851" y="-2" relative="1" as="geometry">
            <mxPoint x="22" as="offset" />
          </mxGeometry>
        </mxCell>
        <mxCell id="A5K-2-Q59cUxb9KNtKoW-73" value="" style="endArrow=classic;html=1;rounded=0;fontFamily=Helvetica;fontSize=12;fontColor=default;exitX=1;exitY=0.5;exitDx=0;exitDy=0;entryX=1;entryY=0.5;entryDx=0;entryDy=0;endFill=0;" edge="1" parent="WIyWlLk6GJQsqaUBKTNV-1" source="A5K-2-Q59cUxb9KNtKoW-69" target="A5K-2-Q59cUxb9KNtKoW-14">
          <mxGeometry width="50" height="50" relative="1" as="geometry">
            <mxPoint x="1160" y="410" as="sourcePoint" />
            <mxPoint x="1220" y="410" as="targetPoint" />
            <Array as="points">
              <mxPoint x="1020" y="480" />
              <mxPoint x="1020" y="300" />
            </Array>
          </mxGeometry>
        </mxCell>
        <mxCell id="A5K-2-Q59cUxb9KNtKoW-74" value="No" style="edgeLabel;html=1;align=center;verticalAlign=middle;resizable=0;points=[];fontSize=12;fontFamily=Helvetica;fontColor=default;" vertex="1" connectable="0" parent="A5K-2-Q59cUxb9KNtKoW-73">
          <mxGeometry x="-0.464" y="1" relative="1" as="geometry">
            <mxPoint x="-19" y="44" as="offset" />
          </mxGeometry>
        </mxCell>
        <mxCell id="A5K-2-Q59cUxb9KNtKoW-76" value="검색하기 버튼 클릭" style="rounded=0;whiteSpace=wrap;html=1;strokeColor=default;fontFamily=Helvetica;fontSize=12;fontColor=default;fillColor=default;" vertex="1" parent="WIyWlLk6GJQsqaUBKTNV-1">
          <mxGeometry x="880" y="360" width="120" height="40" as="geometry" />
        </mxCell>
        <mxCell id="A5K-2-Q59cUxb9KNtKoW-77" value="" style="endArrow=classic;html=1;rounded=0;fontFamily=Helvetica;fontSize=12;fontColor=default;exitX=0.5;exitY=1;exitDx=0;exitDy=0;entryX=0.5;entryY=0;entryDx=0;entryDy=0;" edge="1" parent="WIyWlLk6GJQsqaUBKTNV-1" source="A5K-2-Q59cUxb9KNtKoW-76" target="A5K-2-Q59cUxb9KNtKoW-69">
          <mxGeometry width="50" height="50" relative="1" as="geometry">
            <mxPoint x="950" y="330" as="sourcePoint" />
            <mxPoint x="950" y="370" as="targetPoint" />
          </mxGeometry>
        </mxCell>
        <mxCell id="A5K-2-Q59cUxb9KNtKoW-84" value="게시판 상세 Page&lt;br&gt;[댓글 쓰기]" style="rounded=1;whiteSpace=wrap;html=1;arcSize=50;fillColor=#f8cecc;strokeColor=#b85450;" vertex="1" parent="WIyWlLk6GJQsqaUBKTNV-1">
          <mxGeometry x="1040" y="960" width="120" height="40" as="geometry" />
        </mxCell>
        <mxCell id="A5K-2-Q59cUxb9KNtKoW-85" value="자유게시판 List Page&lt;br&gt;[글쓰기]" style="rounded=1;whiteSpace=wrap;html=1;strokeColor=#b85450;fontFamily=Helvetica;fontSize=12;fillColor=#f8cecc;arcSize=50;" vertex="1" parent="WIyWlLk6GJQsqaUBKTNV-1">
          <mxGeometry x="1080" y="200" width="120" height="40" as="geometry" />
        </mxCell>
        <mxCell id="A5K-2-Q59cUxb9KNtKoW-86" value="자유게시판 List Page&lt;br&gt;[상세Page]" style="rounded=1;whiteSpace=wrap;html=1;strokeColor=#b85450;fontFamily=Helvetica;fontSize=12;fillColor=#f8cecc;arcSize=50;" vertex="1" parent="WIyWlLk6GJQsqaUBKTNV-1">
          <mxGeometry x="1400" y="200" width="120" height="40" as="geometry" />
        </mxCell>
        <mxCell id="A5K-2-Q59cUxb9KNtKoW-87" value="축제톡톡(자유게시판)&lt;br&gt;상세페이지&lt;br&gt;[댓글 ,수정 ,삭제, List로,신고하기]" style="whiteSpace=wrap;html=1;shape=mxgraph.basic.document;strokeColor=default;fontFamily=Helvetica;fontSize=12;fontColor=default;fillColor=default;" vertex="1" parent="WIyWlLk6GJQsqaUBKTNV-1">
          <mxGeometry x="880" y="880" width="130" height="60" as="geometry" />
        </mxCell>
        <mxCell id="A5K-2-Q59cUxb9KNtKoW-94" value="" style="endArrow=classic;html=1;rounded=0;fontFamily=Helvetica;fontSize=12;fontColor=default;entryX=0.5;entryY=0;entryDx=0;entryDy=0;exitX=0.5;exitY=1;exitDx=0;exitDy=0;" edge="1" parent="WIyWlLk6GJQsqaUBKTNV-1" source="A5K-2-Q59cUxb9KNtKoW-86" target="A5K-2-Q59cUxb9KNtKoW-93">
          <mxGeometry width="50" height="50" relative="1" as="geometry">
            <mxPoint x="1460" y="240" as="sourcePoint" />
            <mxPoint x="1460" y="400" as="targetPoint" />
          </mxGeometry>
        </mxCell>
        <mxCell id="A5K-2-Q59cUxb9KNtKoW-93" value="1page(디폴트)&lt;br&gt;Y/N" style="rhombus;whiteSpace=wrap;html=1;shadow=0;fontFamily=Helvetica;fontSize=12;align=center;strokeWidth=1;spacing=6;spacingTop=-4;" vertex="1" parent="WIyWlLk6GJQsqaUBKTNV-1">
          <mxGeometry x="1410" y="280" width="100" height="80" as="geometry" />
        </mxCell>
        <mxCell id="A5K-2-Q59cUxb9KNtKoW-96" value="page 하단부 페이징 기능 부분사용하여 원하는정보 찾기" style="rounded=0;whiteSpace=wrap;html=1;strokeColor=default;fontFamily=Helvetica;fontSize=12;fontColor=default;fillColor=default;" vertex="1" parent="WIyWlLk6GJQsqaUBKTNV-1">
          <mxGeometry x="1560" y="320" width="120" height="40" as="geometry" />
        </mxCell>
        <mxCell id="A5K-2-Q59cUxb9KNtKoW-99" value="" style="endArrow=classic;html=1;rounded=0;fontFamily=Helvetica;fontSize=12;fontColor=default;exitX=0.5;exitY=1;exitDx=0;exitDy=0;endFill=0;" edge="1" parent="WIyWlLk6GJQsqaUBKTNV-1" source="A5K-2-Q59cUxb9KNtKoW-93" target="A5K-2-Q59cUxb9KNtKoW-40">
          <mxGeometry width="50" height="50" relative="1" as="geometry">
            <mxPoint x="1310" y="450" as="sourcePoint" />
            <mxPoint x="1310" y="490" as="targetPoint" />
          </mxGeometry>
        </mxCell>
        <mxCell id="A5K-2-Q59cUxb9KNtKoW-100" value="Yes" style="edgeLabel;html=1;align=center;verticalAlign=middle;resizable=0;points=[];fontSize=12;fontFamily=Helvetica;fontColor=default;" vertex="1" connectable="0" parent="A5K-2-Q59cUxb9KNtKoW-99">
          <mxGeometry x="-0.3851" y="-2" relative="1" as="geometry">
            <mxPoint x="22" as="offset" />
          </mxGeometry>
        </mxCell>
        <mxCell id="A5K-2-Q59cUxb9KNtKoW-101" value="" style="endArrow=classic;html=1;rounded=0;fontFamily=Helvetica;fontSize=12;fontColor=default;exitX=1;exitY=0.5;exitDx=0;exitDy=0;entryX=0;entryY=0;entryDx=0;entryDy=0;endFill=0;" edge="1" parent="WIyWlLk6GJQsqaUBKTNV-1" source="A5K-2-Q59cUxb9KNtKoW-93" target="A5K-2-Q59cUxb9KNtKoW-96">
          <mxGeometry width="50" height="50" relative="1" as="geometry">
            <mxPoint x="1200" y="410" as="sourcePoint" />
            <mxPoint x="1260" y="410" as="targetPoint" />
          </mxGeometry>
        </mxCell>
        <mxCell id="A5K-2-Q59cUxb9KNtKoW-102" value="No" style="edgeLabel;html=1;align=center;verticalAlign=middle;resizable=0;points=[];fontSize=12;fontFamily=Helvetica;fontColor=default;" vertex="1" connectable="0" parent="A5K-2-Q59cUxb9KNtKoW-101">
          <mxGeometry x="-0.464" y="1" relative="1" as="geometry">
            <mxPoint y="11" as="offset" />
          </mxGeometry>
        </mxCell>
        <mxCell id="A5K-2-Q59cUxb9KNtKoW-103" value="" style="endArrow=classic;html=1;rounded=0;fontFamily=Helvetica;fontSize=12;fontColor=default;entryX=1;entryY=0.5;entryDx=0;entryDy=0;exitX=0.5;exitY=1;exitDx=0;exitDy=0;" edge="1" parent="WIyWlLk6GJQsqaUBKTNV-1" source="A5K-2-Q59cUxb9KNtKoW-96" target="A5K-2-Q59cUxb9KNtKoW-40">
          <mxGeometry width="50" height="50" relative="1" as="geometry">
            <mxPoint x="1470" y="250" as="sourcePoint" />
            <mxPoint x="1470" y="290" as="targetPoint" />
            <Array as="points">
              <mxPoint x="1620" y="420" />
            </Array>
          </mxGeometry>
        </mxCell>
        <mxCell id="A5K-2-Q59cUxb9KNtKoW-106" value="" style="endArrow=classic;html=1;rounded=0;fontFamily=Helvetica;fontSize=12;fontColor=default;" edge="1" parent="WIyWlLk6GJQsqaUBKTNV-1" source="A5K-2-Q59cUxb9KNtKoW-84" target="A5K-2-Q59cUxb9KNtKoW-129">
          <mxGeometry width="50" height="50" relative="1" as="geometry">
            <mxPoint x="1150" y="970" as="sourcePoint" />
            <mxPoint x="1100" y="1040" as="targetPoint" />
          </mxGeometry>
        </mxCell>
        <mxCell id="A5K-2-Q59cUxb9KNtKoW-115" value="게시판 상세 Page&lt;br&gt;[댓글 수정]" style="rounded=1;whiteSpace=wrap;html=1;arcSize=50;fillColor=#f8cecc;strokeColor=#b85450;" vertex="1" parent="WIyWlLk6GJQsqaUBKTNV-1">
          <mxGeometry x="1400" y="960" width="120" height="40" as="geometry" />
        </mxCell>
        <mxCell id="A5K-2-Q59cUxb9KNtKoW-119" value="댓글쓰기 완료" style="rounded=1;whiteSpace=wrap;html=1;arcSize=50;" vertex="1" parent="WIyWlLk6GJQsqaUBKTNV-1">
          <mxGeometry x="1040" y="1801" width="120" height="40" as="geometry" />
        </mxCell>
        <mxCell id="A5K-2-Q59cUxb9KNtKoW-120" value="댓글 입력" style="shape=parallelogram;perimeter=parallelogramPerimeter;whiteSpace=wrap;html=1;fixedSize=1;strokeColor=default;fontFamily=Helvetica;fontSize=12;fontColor=default;fillColor=default;" vertex="1" parent="WIyWlLk6GJQsqaUBKTNV-1">
          <mxGeometry x="1040" y="1400" width="120" height="40" as="geometry" />
        </mxCell>
        <mxCell id="A5K-2-Q59cUxb9KNtKoW-122" value="유효성검사 통과?&lt;br&gt;Y/N" style="rhombus;whiteSpace=wrap;html=1;shadow=0;fontFamily=Helvetica;fontSize=12;align=center;strokeWidth=1;spacing=6;spacingTop=-4;" vertex="1" parent="WIyWlLk6GJQsqaUBKTNV-1">
          <mxGeometry x="1050" y="1680" width="100" height="80" as="geometry" />
        </mxCell>
        <mxCell id="A5K-2-Q59cUxb9KNtKoW-123" value="" style="endArrow=classic;html=1;rounded=0;fontFamily=Helvetica;fontSize=12;fontColor=default;exitX=0.5;exitY=1;exitDx=0;exitDy=0;entryX=0.5;entryY=0;entryDx=0;entryDy=0;endFill=0;" edge="1" parent="WIyWlLk6GJQsqaUBKTNV-1" source="A5K-2-Q59cUxb9KNtKoW-122" target="A5K-2-Q59cUxb9KNtKoW-119">
          <mxGeometry width="50" height="50" relative="1" as="geometry">
            <mxPoint x="1270" y="1772" as="sourcePoint" />
            <mxPoint x="1270" y="1812" as="targetPoint" />
          </mxGeometry>
        </mxCell>
        <mxCell id="A5K-2-Q59cUxb9KNtKoW-124" value="Yes" style="edgeLabel;html=1;align=center;verticalAlign=middle;resizable=0;points=[];fontSize=12;fontFamily=Helvetica;fontColor=default;" vertex="1" connectable="0" parent="A5K-2-Q59cUxb9KNtKoW-123">
          <mxGeometry x="-0.3851" y="-2" relative="1" as="geometry">
            <mxPoint x="22" as="offset" />
          </mxGeometry>
        </mxCell>
        <mxCell id="A5K-2-Q59cUxb9KNtKoW-125" value="" style="endArrow=classic;html=1;rounded=0;fontFamily=Helvetica;fontSize=12;fontColor=default;endFill=0;" edge="1" parent="WIyWlLk6GJQsqaUBKTNV-1" source="A5K-2-Q59cUxb9KNtKoW-122" target="A5K-2-Q59cUxb9KNtKoW-120">
          <mxGeometry width="50" height="50" relative="1" as="geometry">
            <mxPoint x="1320" y="1531" as="sourcePoint" />
            <mxPoint x="1380" y="1531" as="targetPoint" />
            <Array as="points">
              <mxPoint x="1000" y="1720" />
              <mxPoint x="1000" y="1420" />
            </Array>
          </mxGeometry>
        </mxCell>
        <mxCell id="A5K-2-Q59cUxb9KNtKoW-126" value="No" style="edgeLabel;html=1;align=center;verticalAlign=middle;resizable=0;points=[];fontSize=12;fontFamily=Helvetica;fontColor=default;" vertex="1" connectable="0" parent="A5K-2-Q59cUxb9KNtKoW-125">
          <mxGeometry x="-0.464" y="1" relative="1" as="geometry">
            <mxPoint x="41" y="67" as="offset" />
          </mxGeometry>
        </mxCell>
        <mxCell id="A5K-2-Q59cUxb9KNtKoW-127" value="댓글쓰기 완료&lt;br&gt;버튼 클릭" style="rounded=0;whiteSpace=wrap;html=1;strokeColor=default;fontFamily=Helvetica;fontSize=12;fontColor=default;fillColor=default;" vertex="1" parent="WIyWlLk6GJQsqaUBKTNV-1">
          <mxGeometry x="1040" y="1600" width="120" height="40" as="geometry" />
        </mxCell>
        <mxCell id="A5K-2-Q59cUxb9KNtKoW-128" value="" style="endArrow=classic;html=1;rounded=0;fontFamily=Helvetica;fontSize=12;fontColor=default;exitX=0.5;exitY=1;exitDx=0;exitDy=0;entryX=0.5;entryY=0;entryDx=0;entryDy=0;" edge="1" parent="WIyWlLk6GJQsqaUBKTNV-1" source="A5K-2-Q59cUxb9KNtKoW-127" target="A5K-2-Q59cUxb9KNtKoW-122">
          <mxGeometry width="50" height="50" relative="1" as="geometry">
            <mxPoint x="1110" y="1532" as="sourcePoint" />
            <mxPoint x="1110" y="1572" as="targetPoint" />
          </mxGeometry>
        </mxCell>
        <mxCell id="A5K-2-Q59cUxb9KNtKoW-129" value="스크롤하여 하단의 댓글 목록부분으로 이동" style="rounded=0;whiteSpace=wrap;html=1;strokeColor=default;fontFamily=Helvetica;fontSize=12;fontColor=default;fillColor=default;" vertex="1" parent="WIyWlLk6GJQsqaUBKTNV-1">
          <mxGeometry x="1040" y="1040" width="120" height="40" as="geometry" />
        </mxCell>
        <mxCell id="A5K-2-Q59cUxb9KNtKoW-135" value="" style="endArrow=classic;html=1;rounded=0;fontFamily=Helvetica;fontSize=12;fontColor=default;endFill=0;" edge="1" parent="WIyWlLk6GJQsqaUBKTNV-1" source="A5K-2-Q59cUxb9KNtKoW-132" target="A5K-2-Q59cUxb9KNtKoW-140">
          <mxGeometry width="50" height="50" relative="1" as="geometry">
            <mxPoint x="1280" y="1130" as="sourcePoint" />
            <mxPoint x="1200" y="1240" as="targetPoint" />
          </mxGeometry>
        </mxCell>
        <mxCell id="A5K-2-Q59cUxb9KNtKoW-136" value="No" style="edgeLabel;html=1;align=center;verticalAlign=middle;resizable=0;points=[];fontSize=12;fontFamily=Helvetica;fontColor=default;" vertex="1" connectable="0" parent="A5K-2-Q59cUxb9KNtKoW-135">
          <mxGeometry x="-0.464" y="1" relative="1" as="geometry">
            <mxPoint y="11" as="offset" />
          </mxGeometry>
        </mxCell>
        <mxCell id="A5K-2-Q59cUxb9KNtKoW-138" value="" style="endArrow=classic;html=1;rounded=0;fontFamily=Helvetica;fontSize=12;fontColor=default;" edge="1" parent="WIyWlLk6GJQsqaUBKTNV-1" source="A5K-2-Q59cUxb9KNtKoW-129" target="A5K-2-Q59cUxb9KNtKoW-137">
          <mxGeometry width="50" height="50" relative="1" as="geometry">
            <mxPoint x="1100" y="1080" as="sourcePoint" />
            <mxPoint x="1100" y="1240" as="targetPoint" />
          </mxGeometry>
        </mxCell>
        <mxCell id="A5K-2-Q59cUxb9KNtKoW-137" value="댓글 입력부분 클릭" style="rounded=0;whiteSpace=wrap;html=1;strokeColor=default;fontFamily=Helvetica;fontSize=12;fontColor=default;fillColor=default;" vertex="1" parent="WIyWlLk6GJQsqaUBKTNV-1">
          <mxGeometry x="1040" y="1120" width="120" height="40" as="geometry" />
        </mxCell>
        <mxCell id="A5K-2-Q59cUxb9KNtKoW-139" value="" style="endArrow=classic;html=1;rounded=0;fontFamily=Helvetica;fontSize=12;fontColor=default;" edge="1" parent="WIyWlLk6GJQsqaUBKTNV-1" source="A5K-2-Q59cUxb9KNtKoW-137" target="A5K-2-Q59cUxb9KNtKoW-132">
          <mxGeometry width="50" height="50" relative="1" as="geometry">
            <mxPoint x="1100" y="1160" as="sourcePoint" />
            <mxPoint x="1100" y="1240" as="targetPoint" />
          </mxGeometry>
        </mxCell>
        <mxCell id="A5K-2-Q59cUxb9KNtKoW-132" value="로그인?&lt;br&gt;Y/N" style="rhombus;whiteSpace=wrap;html=1;shadow=0;fontFamily=Helvetica;fontSize=12;align=center;strokeWidth=1;spacing=6;spacingTop=-4;" vertex="1" parent="WIyWlLk6GJQsqaUBKTNV-1">
          <mxGeometry x="1050" y="1200" width="100" height="80" as="geometry" />
        </mxCell>
        <mxCell id="A5K-2-Q59cUxb9KNtKoW-140" value="[confirm]&lt;br&gt;로그인후 사용가능합니다. 로그인 하시겠습니까?&lt;br&gt;Y/N" style="rhombus;whiteSpace=wrap;html=1;shadow=0;fontFamily=Helvetica;fontSize=12;align=center;strokeWidth=1;spacing=6;spacingTop=-4;" vertex="1" parent="WIyWlLk6GJQsqaUBKTNV-1">
          <mxGeometry x="1210" y="1200" width="100" height="80" as="geometry" />
        </mxCell>
        <mxCell id="A5K-2-Q59cUxb9KNtKoW-141" value="Login Page&lt;br&gt;이동" style="rounded=1;whiteSpace=wrap;html=1;arcSize=50;fillColor=#f8cecc;strokeColor=#b85450;" vertex="1" parent="WIyWlLk6GJQsqaUBKTNV-1">
          <mxGeometry x="1200" y="1320" width="120" height="40" as="geometry" />
        </mxCell>
        <mxCell id="A5K-2-Q59cUxb9KNtKoW-142" value="" style="endArrow=classic;html=1;rounded=0;fontFamily=Helvetica;fontSize=12;fontColor=default;exitX=0.5;exitY=0;exitDx=0;exitDy=0;entryX=1;entryY=0.5;entryDx=0;entryDy=0;endFill=0;" edge="1" parent="WIyWlLk6GJQsqaUBKTNV-1" source="A5K-2-Q59cUxb9KNtKoW-140" target="A5K-2-Q59cUxb9KNtKoW-129">
          <mxGeometry width="50" height="50" relative="1" as="geometry">
            <mxPoint x="1170" y="1290" as="sourcePoint" />
            <mxPoint x="1170" y="1100" as="targetPoint" />
            <Array as="points">
              <mxPoint x="1260" y="1060" />
            </Array>
          </mxGeometry>
        </mxCell>
        <mxCell id="A5K-2-Q59cUxb9KNtKoW-143" value="No" style="edgeLabel;html=1;align=center;verticalAlign=middle;resizable=0;points=[];fontSize=12;fontFamily=Helvetica;fontColor=default;" vertex="1" connectable="0" parent="A5K-2-Q59cUxb9KNtKoW-142">
          <mxGeometry x="-0.464" y="1" relative="1" as="geometry">
            <mxPoint x="21" y="44" as="offset" />
          </mxGeometry>
        </mxCell>
        <mxCell id="A5K-2-Q59cUxb9KNtKoW-145" value="" style="endArrow=classic;html=1;rounded=0;fontFamily=Helvetica;fontSize=12;fontColor=default;endFill=0;" edge="1" parent="WIyWlLk6GJQsqaUBKTNV-1" source="A5K-2-Q59cUxb9KNtKoW-140" target="A5K-2-Q59cUxb9KNtKoW-141">
          <mxGeometry width="50" height="50" relative="1" as="geometry">
            <mxPoint x="1110" y="1290" as="sourcePoint" />
            <mxPoint x="1110" y="1330" as="targetPoint" />
          </mxGeometry>
        </mxCell>
        <mxCell id="A5K-2-Q59cUxb9KNtKoW-146" value="Yes" style="edgeLabel;html=1;align=center;verticalAlign=middle;resizable=0;points=[];fontSize=12;fontFamily=Helvetica;fontColor=default;" vertex="1" connectable="0" parent="A5K-2-Q59cUxb9KNtKoW-145">
          <mxGeometry x="-0.3851" y="-2" relative="1" as="geometry">
            <mxPoint x="22" as="offset" />
          </mxGeometry>
        </mxCell>
        <mxCell id="A5K-2-Q59cUxb9KNtKoW-148" value="" style="endArrow=classic;html=1;rounded=0;fontFamily=Helvetica;fontSize=12;fontColor=default;endFill=0;" edge="1" parent="WIyWlLk6GJQsqaUBKTNV-1" source="A5K-2-Q59cUxb9KNtKoW-132" target="A5K-2-Q59cUxb9KNtKoW-147">
          <mxGeometry width="50" height="50" relative="1" as="geometry">
            <mxPoint x="1100" y="1280" as="sourcePoint" />
            <mxPoint x="1100" y="1400" as="targetPoint" />
          </mxGeometry>
        </mxCell>
        <mxCell id="A5K-2-Q59cUxb9KNtKoW-149" value="Yes" style="edgeLabel;html=1;align=center;verticalAlign=middle;resizable=0;points=[];fontSize=12;fontFamily=Helvetica;fontColor=default;" vertex="1" connectable="0" parent="A5K-2-Q59cUxb9KNtKoW-148">
          <mxGeometry x="-0.3851" y="-2" relative="1" as="geometry">
            <mxPoint x="22" as="offset" />
          </mxGeometry>
        </mxCell>
        <mxCell id="A5K-2-Q59cUxb9KNtKoW-147" value="댓글 입력부분 입력가능하게 비뀜" style="rounded=0;whiteSpace=wrap;html=1;strokeColor=default;fontFamily=Helvetica;fontSize=12;fontColor=default;fillColor=default;" vertex="1" parent="WIyWlLk6GJQsqaUBKTNV-1">
          <mxGeometry x="1040" y="1320" width="120" height="40" as="geometry" />
        </mxCell>
        <mxCell id="A5K-2-Q59cUxb9KNtKoW-150" value="" style="endArrow=classic;html=1;rounded=0;fontFamily=Helvetica;fontSize=12;fontColor=default;exitX=0.5;exitY=1;exitDx=0;exitDy=0;entryX=0.5;entryY=0;entryDx=0;entryDy=0;" edge="1" parent="WIyWlLk6GJQsqaUBKTNV-1" source="A5K-2-Q59cUxb9KNtKoW-147" target="A5K-2-Q59cUxb9KNtKoW-120">
          <mxGeometry width="50" height="50" relative="1" as="geometry">
            <mxPoint x="1104.74" y="1370" as="sourcePoint" />
            <mxPoint x="1104.74" y="1411" as="targetPoint" />
          </mxGeometry>
        </mxCell>
        <mxCell id="A5K-2-Q59cUxb9KNtKoW-151" value="로그인이 되어있는 회원만 &lt;br&gt;댓글 입력이 가능하고&lt;br&gt;아닐경우 List열람만 가능합니다." style="shape=note;size=20;whiteSpace=wrap;html=1;strokeColor=default;fontFamily=Helvetica;fontSize=12;fontColor=default;fillColor=default;" vertex="1" parent="WIyWlLk6GJQsqaUBKTNV-1">
          <mxGeometry x="1205" y="930" width="110" height="100" as="geometry" />
        </mxCell>
        <mxCell id="A5K-2-Q59cUxb9KNtKoW-152" value="본인이 작성한 댓글에만 점3개로&amp;nbsp;수정/삭제 버튼 출력" style="rounded=0;whiteSpace=wrap;html=1;strokeColor=default;fontFamily=Helvetica;fontSize=12;fontColor=default;fillColor=default;" vertex="1" parent="WIyWlLk6GJQsqaUBKTNV-1">
          <mxGeometry x="1400" y="1160" width="120" height="40" as="geometry" />
        </mxCell>
        <mxCell id="A5K-2-Q59cUxb9KNtKoW-153" value="게시판 상세 Page&lt;br&gt;[댓글 열람]" style="rounded=1;whiteSpace=wrap;html=1;arcSize=50;fillColor=#f8cecc;strokeColor=#b85450;" vertex="1" parent="WIyWlLk6GJQsqaUBKTNV-1">
          <mxGeometry x="880" y="960" width="120" height="40" as="geometry" />
        </mxCell>
        <mxCell id="A5K-2-Q59cUxb9KNtKoW-154" value="스크롤하여 하단의 댓글 목록부분으로 이동" style="rounded=0;whiteSpace=wrap;html=1;strokeColor=default;fontFamily=Helvetica;fontSize=12;fontColor=default;fillColor=default;" vertex="1" parent="WIyWlLk6GJQsqaUBKTNV-1">
          <mxGeometry x="880" y="1040" width="120" height="40" as="geometry" />
        </mxCell>
        <mxCell id="A5K-2-Q59cUxb9KNtKoW-155" value="" style="endArrow=classic;html=1;rounded=0;fontFamily=Helvetica;fontSize=12;fontColor=default;" edge="1" parent="WIyWlLk6GJQsqaUBKTNV-1" source="A5K-2-Q59cUxb9KNtKoW-153" target="A5K-2-Q59cUxb9KNtKoW-154">
          <mxGeometry width="50" height="50" relative="1" as="geometry">
            <mxPoint x="980" y="1090" as="sourcePoint" />
            <mxPoint x="1030" y="1040" as="targetPoint" />
          </mxGeometry>
        </mxCell>
        <mxCell id="A5K-2-Q59cUxb9KNtKoW-156" value="" style="endArrow=classic;html=1;rounded=0;fontFamily=Helvetica;fontSize=12;fontColor=default;" edge="1" parent="WIyWlLk6GJQsqaUBKTNV-1" source="A5K-2-Q59cUxb9KNtKoW-154" target="A5K-2-Q59cUxb9KNtKoW-157">
          <mxGeometry width="50" height="50" relative="1" as="geometry">
            <mxPoint x="950" y="1010" as="sourcePoint" />
            <mxPoint x="950" y="1050" as="targetPoint" />
          </mxGeometry>
        </mxCell>
        <mxCell id="A5K-2-Q59cUxb9KNtKoW-157" value="스크롤하여 댓글 더 보기 가능" style="rounded=0;whiteSpace=wrap;html=1;strokeColor=default;fontFamily=Helvetica;fontSize=12;fontColor=default;fillColor=default;" vertex="1" parent="WIyWlLk6GJQsqaUBKTNV-1">
          <mxGeometry x="880" y="1120" width="120" height="40" as="geometry" />
        </mxCell>
        <mxCell id="A5K-2-Q59cUxb9KNtKoW-158" value="게시판 상세 Page&lt;br&gt;[댓글 삭제]" style="rounded=1;whiteSpace=wrap;html=1;arcSize=50;fillColor=#f8cecc;strokeColor=#b85450;" vertex="1" parent="WIyWlLk6GJQsqaUBKTNV-1">
          <mxGeometry x="1720" y="960" width="120" height="40" as="geometry" />
        </mxCell>
        <mxCell id="A5K-2-Q59cUxb9KNtKoW-160" value="본인이 작성한 댓글에만 점3개로&amp;nbsp;수정/삭제 버튼 출력" style="rounded=0;whiteSpace=wrap;html=1;strokeColor=default;fontFamily=Helvetica;fontSize=12;fontColor=default;fillColor=default;" vertex="1" parent="WIyWlLk6GJQsqaUBKTNV-1">
          <mxGeometry x="1720" y="1160" width="120" height="40" as="geometry" />
        </mxCell>
        <mxCell id="A5K-2-Q59cUxb9KNtKoW-161" value="수정버튼 클릭" style="rounded=0;whiteSpace=wrap;html=1;strokeColor=default;fontFamily=Helvetica;fontSize=12;fontColor=default;fillColor=default;" vertex="1" parent="WIyWlLk6GJQsqaUBKTNV-1">
          <mxGeometry x="1400" y="1240" width="120" height="40" as="geometry" />
        </mxCell>
        <mxCell id="A5K-2-Q59cUxb9KNtKoW-162" value="삭제버튼 클릭" style="rounded=0;whiteSpace=wrap;html=1;strokeColor=default;fontFamily=Helvetica;fontSize=12;fontColor=default;fillColor=default;" vertex="1" parent="WIyWlLk6GJQsqaUBKTNV-1">
          <mxGeometry x="1720" y="1240" width="120" height="40" as="geometry" />
        </mxCell>
        <mxCell id="A5K-2-Q59cUxb9KNtKoW-164" value="" style="endArrow=classic;html=1;rounded=0;fontFamily=Helvetica;fontSize=12;fontColor=default;" edge="1" parent="WIyWlLk6GJQsqaUBKTNV-1" source="A5K-2-Q59cUxb9KNtKoW-115" target="A5K-2-Q59cUxb9KNtKoW-163">
          <mxGeometry width="50" height="50" relative="1" as="geometry">
            <mxPoint x="1460" y="1000" as="sourcePoint" />
            <mxPoint x="1460" y="1120" as="targetPoint" />
          </mxGeometry>
        </mxCell>
        <mxCell id="A5K-2-Q59cUxb9KNtKoW-163" value="댓글 작성자?&lt;br&gt;Y/N" style="rhombus;whiteSpace=wrap;html=1;shadow=0;fontFamily=Helvetica;fontSize=12;align=center;strokeWidth=1;spacing=6;spacingTop=-4;" vertex="1" parent="WIyWlLk6GJQsqaUBKTNV-1">
          <mxGeometry x="1410" y="1040" width="100" height="80" as="geometry" />
        </mxCell>
        <mxCell id="A5K-2-Q59cUxb9KNtKoW-166" value="" style="endArrow=classic;html=1;rounded=0;fontFamily=Helvetica;fontSize=12;fontColor=default;" edge="1" parent="WIyWlLk6GJQsqaUBKTNV-1" source="A5K-2-Q59cUxb9KNtKoW-158" target="A5K-2-Q59cUxb9KNtKoW-165">
          <mxGeometry width="50" height="50" relative="1" as="geometry">
            <mxPoint x="1780" y="1000" as="sourcePoint" />
            <mxPoint x="1780" y="1120" as="targetPoint" />
          </mxGeometry>
        </mxCell>
        <mxCell id="A5K-2-Q59cUxb9KNtKoW-165" value="댓글 작성자?&lt;br&gt;Y/N" style="rhombus;whiteSpace=wrap;html=1;shadow=0;fontFamily=Helvetica;fontSize=12;align=center;strokeWidth=1;spacing=6;spacingTop=-4;" vertex="1" parent="WIyWlLk6GJQsqaUBKTNV-1">
          <mxGeometry x="1730" y="1040" width="100" height="80" as="geometry" />
        </mxCell>
        <mxCell id="A5K-2-Q59cUxb9KNtKoW-168" value="디폴트값으로 수정전의 댓글표시에서 수정" style="rounded=0;whiteSpace=wrap;html=1;strokeColor=default;fontFamily=Helvetica;fontSize=12;fontColor=default;fillColor=default;" vertex="1" parent="WIyWlLk6GJQsqaUBKTNV-1">
          <mxGeometry x="1400" y="1320" width="120" height="40" as="geometry" />
        </mxCell>
        <mxCell id="A5K-2-Q59cUxb9KNtKoW-171" value="[alert]&lt;br&gt;댓글쓰기가 완료 되었습니다" style="shape=parallelogram;perimeter=parallelogramPerimeter;whiteSpace=wrap;html=1;fixedSize=1;strokeColor=default;fontFamily=Helvetica;fontSize=12;fontColor=default;fillColor=default;" vertex="1" parent="WIyWlLk6GJQsqaUBKTNV-1">
          <mxGeometry x="1040" y="1880" width="120" height="40" as="geometry" />
        </mxCell>
        <mxCell id="A5K-2-Q59cUxb9KNtKoW-172" value="" style="endArrow=classic;html=1;rounded=0;fontFamily=Helvetica;fontSize=12;fontColor=default;" edge="1" parent="WIyWlLk6GJQsqaUBKTNV-1" source="A5K-2-Q59cUxb9KNtKoW-119" target="A5K-2-Q59cUxb9KNtKoW-171">
          <mxGeometry width="50" height="50" relative="1" as="geometry">
            <mxPoint x="1110" y="1652" as="sourcePoint" />
            <mxPoint x="1110" y="1692" as="targetPoint" />
          </mxGeometry>
        </mxCell>
        <mxCell id="A5K-2-Q59cUxb9KNtKoW-173" value="" style="endArrow=classic;html=1;rounded=0;fontFamily=Helvetica;fontSize=12;fontColor=default;endFill=0;" edge="1" parent="WIyWlLk6GJQsqaUBKTNV-1" source="A5K-2-Q59cUxb9KNtKoW-163" target="A5K-2-Q59cUxb9KNtKoW-152">
          <mxGeometry width="50" height="50" relative="1" as="geometry">
            <mxPoint x="1150" y="1290" as="sourcePoint" />
            <mxPoint x="1150" y="1330" as="targetPoint" />
          </mxGeometry>
        </mxCell>
        <mxCell id="A5K-2-Q59cUxb9KNtKoW-174" value="Yes" style="edgeLabel;html=1;align=center;verticalAlign=middle;resizable=0;points=[];fontSize=12;fontFamily=Helvetica;fontColor=default;" vertex="1" connectable="0" parent="A5K-2-Q59cUxb9KNtKoW-173">
          <mxGeometry x="-0.3851" y="-2" relative="1" as="geometry">
            <mxPoint x="22" as="offset" />
          </mxGeometry>
        </mxCell>
        <mxCell id="A5K-2-Q59cUxb9KNtKoW-175" value="" style="endArrow=classic;html=1;rounded=0;fontFamily=Helvetica;fontSize=12;fontColor=default;endFill=0;" edge="1" parent="WIyWlLk6GJQsqaUBKTNV-1" source="A5K-2-Q59cUxb9KNtKoW-165" target="A5K-2-Q59cUxb9KNtKoW-160">
          <mxGeometry width="50" height="50" relative="1" as="geometry">
            <mxPoint x="1310" y="1290" as="sourcePoint" />
            <mxPoint x="1310" y="1330" as="targetPoint" />
          </mxGeometry>
        </mxCell>
        <mxCell id="A5K-2-Q59cUxb9KNtKoW-176" value="Yes" style="edgeLabel;html=1;align=center;verticalAlign=middle;resizable=0;points=[];fontSize=12;fontFamily=Helvetica;fontColor=default;" vertex="1" connectable="0" parent="A5K-2-Q59cUxb9KNtKoW-175">
          <mxGeometry x="-0.3851" y="-2" relative="1" as="geometry">
            <mxPoint x="22" as="offset" />
          </mxGeometry>
        </mxCell>
        <mxCell id="A5K-2-Q59cUxb9KNtKoW-181" value="댓글쓰기 완료" style="rounded=1;whiteSpace=wrap;html=1;arcSize=50;" vertex="1" parent="WIyWlLk6GJQsqaUBKTNV-1">
          <mxGeometry x="1400" y="1682" width="120" height="40" as="geometry" />
        </mxCell>
        <mxCell id="A5K-2-Q59cUxb9KNtKoW-182" value="댓글 수정" style="shape=parallelogram;perimeter=parallelogramPerimeter;whiteSpace=wrap;html=1;fixedSize=1;strokeColor=default;fontFamily=Helvetica;fontSize=12;fontColor=default;fillColor=default;" vertex="1" parent="WIyWlLk6GJQsqaUBKTNV-1">
          <mxGeometry x="1400" y="1401" width="120" height="40" as="geometry" />
        </mxCell>
        <mxCell id="A5K-2-Q59cUxb9KNtKoW-183" value="" style="endArrow=classic;html=1;rounded=0;fontFamily=Helvetica;fontSize=12;fontColor=default;exitX=0.5;exitY=1;exitDx=0;exitDy=0;entryX=0.5;entryY=0;entryDx=0;entryDy=0;" edge="1" parent="WIyWlLk6GJQsqaUBKTNV-1" source="A5K-2-Q59cUxb9KNtKoW-182" target="A5K-2-Q59cUxb9KNtKoW-189">
          <mxGeometry width="50" height="50" relative="1" as="geometry">
            <mxPoint x="1440" y="1452" as="sourcePoint" />
            <mxPoint x="1490" y="1402" as="targetPoint" />
          </mxGeometry>
        </mxCell>
        <mxCell id="A5K-2-Q59cUxb9KNtKoW-184" value="유효성검사 통과?&lt;br&gt;Y/N" style="rhombus;whiteSpace=wrap;html=1;shadow=0;fontFamily=Helvetica;fontSize=12;align=center;strokeWidth=1;spacing=6;spacingTop=-4;" vertex="1" parent="WIyWlLk6GJQsqaUBKTNV-1">
          <mxGeometry x="1410" y="1562" width="100" height="80" as="geometry" />
        </mxCell>
        <mxCell id="A5K-2-Q59cUxb9KNtKoW-185" value="" style="endArrow=classic;html=1;rounded=0;fontFamily=Helvetica;fontSize=12;fontColor=default;exitX=0.5;exitY=1;exitDx=0;exitDy=0;entryX=0.5;entryY=0;entryDx=0;entryDy=0;endFill=0;" edge="1" parent="WIyWlLk6GJQsqaUBKTNV-1" source="A5K-2-Q59cUxb9KNtKoW-184" target="A5K-2-Q59cUxb9KNtKoW-181">
          <mxGeometry width="50" height="50" relative="1" as="geometry">
            <mxPoint x="1630" y="1652" as="sourcePoint" />
            <mxPoint x="1630" y="1692" as="targetPoint" />
          </mxGeometry>
        </mxCell>
        <mxCell id="A5K-2-Q59cUxb9KNtKoW-186" value="Yes" style="edgeLabel;html=1;align=center;verticalAlign=middle;resizable=0;points=[];fontSize=12;fontFamily=Helvetica;fontColor=default;" vertex="1" connectable="0" parent="A5K-2-Q59cUxb9KNtKoW-185">
          <mxGeometry x="-0.3851" y="-2" relative="1" as="geometry">
            <mxPoint x="22" as="offset" />
          </mxGeometry>
        </mxCell>
        <mxCell id="A5K-2-Q59cUxb9KNtKoW-187" value="" style="endArrow=classic;html=1;rounded=0;fontFamily=Helvetica;fontSize=12;fontColor=default;exitX=1;exitY=0.5;exitDx=0;exitDy=0;entryX=1;entryY=0.5;entryDx=0;entryDy=0;endFill=0;" edge="1" parent="WIyWlLk6GJQsqaUBKTNV-1" source="A5K-2-Q59cUxb9KNtKoW-184" target="A5K-2-Q59cUxb9KNtKoW-182">
          <mxGeometry width="50" height="50" relative="1" as="geometry">
            <mxPoint x="1680" y="1532" as="sourcePoint" />
            <mxPoint x="1740" y="1532" as="targetPoint" />
            <Array as="points">
              <mxPoint x="1560" y="1602" />
              <mxPoint x="1560" y="1421" />
            </Array>
          </mxGeometry>
        </mxCell>
        <mxCell id="A5K-2-Q59cUxb9KNtKoW-188" value="No" style="edgeLabel;html=1;align=center;verticalAlign=middle;resizable=0;points=[];fontSize=12;fontFamily=Helvetica;fontColor=default;" vertex="1" connectable="0" parent="A5K-2-Q59cUxb9KNtKoW-187">
          <mxGeometry x="-0.464" y="1" relative="1" as="geometry">
            <mxPoint x="-19" y="44" as="offset" />
          </mxGeometry>
        </mxCell>
        <mxCell id="A5K-2-Q59cUxb9KNtKoW-189" value="댓글쓰기 완료&lt;br&gt;버튼 클릭" style="rounded=0;whiteSpace=wrap;html=1;strokeColor=default;fontFamily=Helvetica;fontSize=12;fontColor=default;fillColor=default;" vertex="1" parent="WIyWlLk6GJQsqaUBKTNV-1">
          <mxGeometry x="1400" y="1482" width="120" height="40" as="geometry" />
        </mxCell>
        <mxCell id="A5K-2-Q59cUxb9KNtKoW-190" value="" style="endArrow=classic;html=1;rounded=0;fontFamily=Helvetica;fontSize=12;fontColor=default;exitX=0.5;exitY=1;exitDx=0;exitDy=0;entryX=0.5;entryY=0;entryDx=0;entryDy=0;" edge="1" parent="WIyWlLk6GJQsqaUBKTNV-1" source="A5K-2-Q59cUxb9KNtKoW-189" target="A5K-2-Q59cUxb9KNtKoW-184">
          <mxGeometry width="50" height="50" relative="1" as="geometry">
            <mxPoint x="1470" y="1452" as="sourcePoint" />
            <mxPoint x="1470" y="1492" as="targetPoint" />
          </mxGeometry>
        </mxCell>
        <mxCell id="A5K-2-Q59cUxb9KNtKoW-191" value="[alert]&lt;br&gt;댓글 수정이 완료 되었습니다" style="shape=parallelogram;perimeter=parallelogramPerimeter;whiteSpace=wrap;html=1;fixedSize=1;strokeColor=default;fontFamily=Helvetica;fontSize=12;fontColor=default;fillColor=default;" vertex="1" parent="WIyWlLk6GJQsqaUBKTNV-1">
          <mxGeometry x="1400" y="1761" width="120" height="40" as="geometry" />
        </mxCell>
        <mxCell id="A5K-2-Q59cUxb9KNtKoW-192" value="" style="endArrow=classic;html=1;rounded=0;fontFamily=Helvetica;fontSize=12;fontColor=default;" edge="1" parent="WIyWlLk6GJQsqaUBKTNV-1" source="A5K-2-Q59cUxb9KNtKoW-181" target="A5K-2-Q59cUxb9KNtKoW-191">
          <mxGeometry width="50" height="50" relative="1" as="geometry">
            <mxPoint x="1470" y="1532" as="sourcePoint" />
            <mxPoint x="1470" y="1572" as="targetPoint" />
          </mxGeometry>
        </mxCell>
        <mxCell id="A5K-2-Q59cUxb9KNtKoW-193" value="" style="endArrow=classic;html=1;rounded=0;fontFamily=Helvetica;fontSize=12;fontColor=default;" edge="1" parent="WIyWlLk6GJQsqaUBKTNV-1" source="A5K-2-Q59cUxb9KNtKoW-168" target="A5K-2-Q59cUxb9KNtKoW-182">
          <mxGeometry width="50" height="50" relative="1" as="geometry">
            <mxPoint x="1150" y="1370" as="sourcePoint" />
            <mxPoint x="1150" y="1410" as="targetPoint" />
          </mxGeometry>
        </mxCell>
        <mxCell id="A5K-2-Q59cUxb9KNtKoW-195" value="" style="endArrow=classic;html=1;rounded=0;fontFamily=Helvetica;fontSize=12;fontColor=default;" edge="1" parent="WIyWlLk6GJQsqaUBKTNV-1" source="A5K-2-Q59cUxb9KNtKoW-161" target="A5K-2-Q59cUxb9KNtKoW-168">
          <mxGeometry width="50" height="50" relative="1" as="geometry">
            <mxPoint x="1470" y="1370" as="sourcePoint" />
            <mxPoint x="1470" y="1411" as="targetPoint" />
          </mxGeometry>
        </mxCell>
        <mxCell id="A5K-2-Q59cUxb9KNtKoW-196" value="" style="endArrow=classic;html=1;rounded=0;fontFamily=Helvetica;fontSize=12;fontColor=default;" edge="1" parent="WIyWlLk6GJQsqaUBKTNV-1" source="A5K-2-Q59cUxb9KNtKoW-152" target="A5K-2-Q59cUxb9KNtKoW-161">
          <mxGeometry width="50" height="50" relative="1" as="geometry">
            <mxPoint x="1470" y="1290" as="sourcePoint" />
            <mxPoint x="1470" y="1330" as="targetPoint" />
          </mxGeometry>
        </mxCell>
        <mxCell id="A5K-2-Q59cUxb9KNtKoW-197" value="" style="endArrow=classic;html=1;rounded=0;fontFamily=Helvetica;fontSize=12;fontColor=default;" edge="1" parent="WIyWlLk6GJQsqaUBKTNV-1" source="A5K-2-Q59cUxb9KNtKoW-160" target="A5K-2-Q59cUxb9KNtKoW-162">
          <mxGeometry width="50" height="50" relative="1" as="geometry">
            <mxPoint x="1510" y="1210" as="sourcePoint" />
            <mxPoint x="1510" y="1250" as="targetPoint" />
          </mxGeometry>
        </mxCell>
        <mxCell id="A5K-2-Q59cUxb9KNtKoW-198" value="게시판 상세 Page&lt;br style=&quot;border-color: var(--border-color);&quot;&gt;[댓글 열람]만 가능" style="rounded=1;whiteSpace=wrap;html=1;arcSize=50;fillColor=#f8cecc;strokeColor=#b85450;" vertex="1" parent="WIyWlLk6GJQsqaUBKTNV-1">
          <mxGeometry x="1560" y="1060" width="120" height="40" as="geometry" />
        </mxCell>
        <mxCell id="A5K-2-Q59cUxb9KNtKoW-199" value="게시판 상세 Page&lt;br style=&quot;border-color: var(--border-color);&quot;&gt;[댓글 열람]만 가능" style="rounded=1;whiteSpace=wrap;html=1;arcSize=50;fillColor=#f8cecc;strokeColor=#b85450;" vertex="1" parent="WIyWlLk6GJQsqaUBKTNV-1">
          <mxGeometry x="1880" y="1060" width="120" height="40" as="geometry" />
        </mxCell>
        <mxCell id="A5K-2-Q59cUxb9KNtKoW-200" value="" style="endArrow=classic;html=1;rounded=0;fontFamily=Helvetica;fontSize=12;fontColor=default;endFill=0;" edge="1" parent="WIyWlLk6GJQsqaUBKTNV-1" source="A5K-2-Q59cUxb9KNtKoW-163" target="A5K-2-Q59cUxb9KNtKoW-198">
          <mxGeometry width="50" height="50" relative="1" as="geometry">
            <mxPoint x="1200" y="1250" as="sourcePoint" />
            <mxPoint x="1260" y="1250" as="targetPoint" />
          </mxGeometry>
        </mxCell>
        <mxCell id="A5K-2-Q59cUxb9KNtKoW-201" value="No" style="edgeLabel;html=1;align=center;verticalAlign=middle;resizable=0;points=[];fontSize=12;fontFamily=Helvetica;fontColor=default;" vertex="1" connectable="0" parent="A5K-2-Q59cUxb9KNtKoW-200">
          <mxGeometry x="-0.464" y="1" relative="1" as="geometry">
            <mxPoint x="-4" y="21" as="offset" />
          </mxGeometry>
        </mxCell>
        <mxCell id="A5K-2-Q59cUxb9KNtKoW-202" value="" style="endArrow=classic;html=1;rounded=0;fontFamily=Helvetica;fontSize=12;fontColor=default;endFill=0;" edge="1" parent="WIyWlLk6GJQsqaUBKTNV-1" source="A5K-2-Q59cUxb9KNtKoW-165" target="A5K-2-Q59cUxb9KNtKoW-199">
          <mxGeometry width="50" height="50" relative="1" as="geometry">
            <mxPoint x="1520" y="1090" as="sourcePoint" />
            <mxPoint x="1570" y="1090" as="targetPoint" />
          </mxGeometry>
        </mxCell>
        <mxCell id="A5K-2-Q59cUxb9KNtKoW-203" value="No" style="edgeLabel;html=1;align=center;verticalAlign=middle;resizable=0;points=[];fontSize=12;fontFamily=Helvetica;fontColor=default;" vertex="1" connectable="0" parent="A5K-2-Q59cUxb9KNtKoW-202">
          <mxGeometry x="-0.464" y="1" relative="1" as="geometry">
            <mxPoint x="-4" y="21" as="offset" />
          </mxGeometry>
        </mxCell>
        <mxCell id="A5K-2-Q59cUxb9KNtKoW-205" value="[confirm]&lt;br&gt;댓글을 삭제하시겠습니까?&lt;br&gt;Y/N" style="rhombus;whiteSpace=wrap;html=1;shadow=0;fontFamily=Helvetica;fontSize=12;align=center;strokeWidth=1;spacing=6;spacingTop=-4;" vertex="1" parent="WIyWlLk6GJQsqaUBKTNV-1">
          <mxGeometry x="1730" y="1320" width="100" height="80" as="geometry" />
        </mxCell>
        <mxCell id="A5K-2-Q59cUxb9KNtKoW-206" value="" style="endArrow=classic;html=1;rounded=0;fontFamily=Helvetica;fontSize=12;fontColor=default;endFill=0;" edge="1" parent="WIyWlLk6GJQsqaUBKTNV-1" source="A5K-2-Q59cUxb9KNtKoW-205" target="A5K-2-Q59cUxb9KNtKoW-199">
          <mxGeometry width="50" height="50" relative="1" as="geometry">
            <mxPoint x="1840" y="1090" as="sourcePoint" />
            <mxPoint x="1890" y="1090" as="targetPoint" />
            <Array as="points">
              <mxPoint x="1940" y="1360" />
            </Array>
          </mxGeometry>
        </mxCell>
        <mxCell id="A5K-2-Q59cUxb9KNtKoW-207" value="No" style="edgeLabel;html=1;align=center;verticalAlign=middle;resizable=0;points=[];fontSize=12;fontFamily=Helvetica;fontColor=default;" vertex="1" connectable="0" parent="A5K-2-Q59cUxb9KNtKoW-206">
          <mxGeometry x="-0.464" y="1" relative="1" as="geometry">
            <mxPoint x="-79" y="21" as="offset" />
          </mxGeometry>
        </mxCell>
        <mxCell id="A5K-2-Q59cUxb9KNtKoW-209" value="" style="endArrow=classic;html=1;rounded=0;fontFamily=Helvetica;fontSize=12;fontColor=default;exitX=0.5;exitY=1;exitDx=0;exitDy=0;entryX=0.5;entryY=0;entryDx=0;entryDy=0;" edge="1" parent="WIyWlLk6GJQsqaUBKTNV-1" source="A5K-2-Q59cUxb9KNtKoW-120" target="A5K-2-Q59cUxb9KNtKoW-208">
          <mxGeometry width="50" height="50" relative="1" as="geometry">
            <mxPoint x="1100" y="1440" as="sourcePoint" />
            <mxPoint x="1100" y="1562" as="targetPoint" />
          </mxGeometry>
        </mxCell>
        <mxCell id="A5K-2-Q59cUxb9KNtKoW-208" value="댓글 완료?&lt;br&gt;Y/N" style="rhombus;whiteSpace=wrap;html=1;shadow=0;fontFamily=Helvetica;fontSize=12;align=center;strokeWidth=1;spacing=6;spacingTop=-4;" vertex="1" parent="WIyWlLk6GJQsqaUBKTNV-1">
          <mxGeometry x="1050" y="1480" width="100" height="80" as="geometry" />
        </mxCell>
        <mxCell id="A5K-2-Q59cUxb9KNtKoW-210" value="" style="endArrow=classic;html=1;rounded=0;fontFamily=Helvetica;fontSize=12;fontColor=default;endFill=0;" edge="1" parent="WIyWlLk6GJQsqaUBKTNV-1" source="A5K-2-Q59cUxb9KNtKoW-208" target="A5K-2-Q59cUxb9KNtKoW-127">
          <mxGeometry width="50" height="50" relative="1" as="geometry">
            <mxPoint x="1430" y="1652" as="sourcePoint" />
            <mxPoint x="1430" y="1692" as="targetPoint" />
          </mxGeometry>
        </mxCell>
        <mxCell id="A5K-2-Q59cUxb9KNtKoW-211" value="Yes" style="edgeLabel;html=1;align=center;verticalAlign=middle;resizable=0;points=[];fontSize=12;fontFamily=Helvetica;fontColor=default;" vertex="1" connectable="0" parent="A5K-2-Q59cUxb9KNtKoW-210">
          <mxGeometry x="-0.3851" y="-2" relative="1" as="geometry">
            <mxPoint x="22" as="offset" />
          </mxGeometry>
        </mxCell>
        <mxCell id="A5K-2-Q59cUxb9KNtKoW-214" value="" style="endArrow=classic;html=1;rounded=0;fontFamily=Helvetica;fontSize=12;fontColor=default;" edge="1" parent="WIyWlLk6GJQsqaUBKTNV-1" source="A5K-2-Q59cUxb9KNtKoW-217">
          <mxGeometry width="50" height="50" relative="1" as="geometry">
            <mxPoint x="1140" y="1510" as="sourcePoint" />
            <mxPoint x="1200" y="1520" as="targetPoint" />
          </mxGeometry>
        </mxCell>
        <mxCell id="A5K-2-Q59cUxb9KNtKoW-218" value="" style="endArrow=classic;html=1;rounded=0;fontFamily=Helvetica;fontSize=12;fontColor=default;endFill=0;" edge="1" parent="WIyWlLk6GJQsqaUBKTNV-1" source="A5K-2-Q59cUxb9KNtKoW-208" target="A5K-2-Q59cUxb9KNtKoW-217">
          <mxGeometry width="50" height="50" relative="1" as="geometry">
            <mxPoint x="1150" y="1520" as="sourcePoint" />
            <mxPoint x="1200" y="1520" as="targetPoint" />
          </mxGeometry>
        </mxCell>
        <mxCell id="A5K-2-Q59cUxb9KNtKoW-219" value="No" style="edgeLabel;html=1;align=center;verticalAlign=middle;resizable=0;points=[];fontSize=12;fontFamily=Helvetica;fontColor=default;" vertex="1" connectable="0" parent="A5K-2-Q59cUxb9KNtKoW-218">
          <mxGeometry x="-0.3626" y="-1" relative="1" as="geometry">
            <mxPoint y="9" as="offset" />
          </mxGeometry>
        </mxCell>
        <mxCell id="A5K-2-Q59cUxb9KNtKoW-217" value="[confirm]&lt;br&gt;댓글쓰기를 취소하시겠습니까?&lt;br&gt;Y/N" style="rhombus;whiteSpace=wrap;html=1;shadow=0;fontFamily=Helvetica;fontSize=12;align=center;strokeWidth=1;spacing=6;spacingTop=-4;" vertex="1" parent="WIyWlLk6GJQsqaUBKTNV-1">
          <mxGeometry x="1200" y="1480" width="100" height="80" as="geometry" />
        </mxCell>
        <mxCell id="A5K-2-Q59cUxb9KNtKoW-220" value="" style="endArrow=classic;html=1;rounded=0;fontFamily=Helvetica;fontSize=12;fontColor=default;endFill=0;" edge="1" parent="WIyWlLk6GJQsqaUBKTNV-1" source="A5K-2-Q59cUxb9KNtKoW-217" target="A5K-2-Q59cUxb9KNtKoW-129">
          <mxGeometry width="50" height="50" relative="1" as="geometry">
            <mxPoint x="1060" y="1730" as="sourcePoint" />
            <mxPoint x="1060" y="1430" as="targetPoint" />
            <Array as="points">
              <mxPoint x="1360" y="1520" />
              <mxPoint x="1360" y="1060" />
            </Array>
          </mxGeometry>
        </mxCell>
        <mxCell id="A5K-2-Q59cUxb9KNtKoW-221" value="Yes" style="edgeLabel;html=1;align=center;verticalAlign=middle;resizable=0;points=[];fontSize=12;fontFamily=Helvetica;fontColor=default;" vertex="1" connectable="0" parent="A5K-2-Q59cUxb9KNtKoW-220">
          <mxGeometry x="-0.464" y="1" relative="1" as="geometry">
            <mxPoint x="-29" y="143" as="offset" />
          </mxGeometry>
        </mxCell>
        <mxCell id="A5K-2-Q59cUxb9KNtKoW-222" value="" style="endArrow=classic;html=1;rounded=0;fontFamily=Helvetica;fontSize=12;fontColor=default;endFill=0;" edge="1" parent="WIyWlLk6GJQsqaUBKTNV-1" source="A5K-2-Q59cUxb9KNtKoW-217" target="A5K-2-Q59cUxb9KNtKoW-120">
          <mxGeometry width="50" height="50" relative="1" as="geometry">
            <mxPoint x="1160" y="1530" as="sourcePoint" />
            <mxPoint x="1210" y="1530" as="targetPoint" />
            <Array as="points">
              <mxPoint x="1250" y="1420" />
            </Array>
          </mxGeometry>
        </mxCell>
        <mxCell id="A5K-2-Q59cUxb9KNtKoW-223" value="No" style="edgeLabel;html=1;align=center;verticalAlign=middle;resizable=0;points=[];fontSize=12;fontFamily=Helvetica;fontColor=default;" vertex="1" connectable="0" parent="A5K-2-Q59cUxb9KNtKoW-222">
          <mxGeometry x="-0.3626" y="-1" relative="1" as="geometry">
            <mxPoint x="9" y="31" as="offset" />
          </mxGeometry>
        </mxCell>
      </root>
    </mxGraphModel>
  </diagram>
</mxfile>
